{"title":"Simon of the Desert (1965) DVDRip Divx","uid":6278066,"size":741927395,"categoryP":"video","categoryS":"movies","magnet":"?xt=urn:btih:d663b6f4837de379415dfa3062991c4f43ee510b&amp;dn=Simon+of+the+Desert+%281965%29+DVDRip+Divx&amp;tr=udp%3A%2F%2Ftracker.openbittorrent.com%3A80&amp;tr=udp%3A%2F%2Fopen.demonii.com%3A1337&amp;tr=udp%3A%2F%2Ftracker.coppersurfer.tk%3A6969&amp;tr=udp%3A%2F%2Fexodus.desync.com%3A6969","seeders":1,"leechers":0,"uploader":"zbig169","files":-1,"time":1301335219,"description":"\nSimon of the Desert (1965)\n(SimÃƒÂ³n del desierto) \nfilm directed by Luis BuÃƒÂ±uel\n\n\nThis is DVDRip from Criterion Collection retail DVD\nit include original AC3 1 channel soundtrack instead of \ncustom made mp3.\n\nSample of AVI file (40,659,230 bytes; 2min 12s) included !\n----------------------------------------------------------\n\n\nSimon a deep religious man in the 4th century wants to be nearer\nto God, so he climbes a column. The devil wants him to get down\non earth an is trying to seduce him. But Simon recognizes him everytime.\nSo the devil takes him to a nightclub in New York of the 1960s. \n=====================================================\n\nGeneral\nComplete name                    : Simon_of_the_Desert_orig_ac3.avi\nFormat                           : AVI\nFormat/Info                      : Audio Video Interleave\nFile size                        : 669 MiB\nDuration                         : 45mn 34s\nOverall bit rate                 : 2 051 Kbps\nWriting application              : VirtualDubMod 1.5.10.2 (build 2540/release)\nWriting library                  : VirtualDubMod build 2540/release\n\nVideo\nID                               : 0\nFormat                           : MPEG-4 Visual\nFormat settings, BVOP            : 1\nFormat settings, QPel            : No\nFormat settings, GMC             : No warppoints\nFormat settings, Matrix          : Default (H.263)\nMuxing mode                      : Packed bitstream\nCodec ID                         : DX50\nCodec ID/Hint                    : DivX 5\nDuration                         : 45mn 34s\nBit rate                         : 1 850 Kbps\nWidth                            : 640 pixels\nHeight                           : 464 pixels\nDisplay aspect ratio             : 1.379\nFrame rate                       : 23.976 fps\nColor space                      : YUV\nChroma subsampling               : 4:2:0\nBit depth                        : 8 bits\nScan type                        : Progressive\nCompression mode                 : Lossy\nBits/(Pixel*Frame)               : 0.260\nStream size                      : 603 MiB (90%)\nWriting library                  : DivX 6.8.5 (UTC 2009-08-20)\n\nAudio\nID                               : 1\nFormat                           : AC-3\nFormat/Info                      : Audio Coding 3\nMode extension                   : CM (complete main)\nCodec ID                         : 2000\nDuration                         : 45mn 34s\nBit rate mode                    : Constant\nBit rate                         : 192 Kbps\nChannel(s)                       : 1 channel\nChannel positions                : Front: C\nSampling rate                    : 48.0 KHz\nBit depth                        : 16 bits\nCompression mode                 : Lossy\nStream size                      : 62.6 MiB (9%)\nAlignment                        : Split accross interleaves\nInterleave, duration             : 42 ms (1.00 video frame)\nInterleave, preload duration     : 500 ms\n","torrent":{"xt":"urn:btih:d663b6f4837de379415dfa3062991c4f43ee510b","amp;dn":"Simon+of+the+Desert+%281965%29+DVDRip+Divx","amp;tr":["udp%3A%2F%2Ftracker.openbittorrent.com%3A80","udp%3A%2F%2Fopen.demonii.com%3A1337","udp%3A%2F%2Ftracker.coppersurfer.tk%3A6969","udp%3A%2F%2Fexodus.desync.com%3A6969"],"infoHash":"d663b6f4837de379415dfa3062991c4f43ee510b","infoHashBuffer":{"type":"Buffer","data":[214,99,182,244,131,125,227,121,65,93,250,48,98,153,28,79,67,238,81,11]},"announce":[],"urlList":[]}}